<?xml version="1.0" encoding="UTF-8"?>
<svg xmlns="http://www.w3.org/2000/svg" xmlns:xlink="http://www.w3.org/1999/xlink" width="854" height="480" viewBox="0 0 854 480">
<defs>
<g>
<g id="glyph-0-0">
<rect x="0" y="0" width="0" height="0" mask="url(#mask-0)"/>
</g>
<g id="glyph-0-1">
<path d="M 0.367188 -3.816406 L 1.074219 -3.816406 C 1.070312 -3.996094 1.085938 -4.171875 1.128906 -4.34375 C 1.171875 -4.519531 1.238281 -4.675781 1.332031 -4.816406 C 1.425781 -4.957031 1.546875 -5.066406 1.695312 -5.152344 C 1.84375 -5.238281 2.019531 -5.28125 2.226562 -5.28125 C 2.382812 -5.28125 2.527344 -5.257812 2.667969 -5.207031 C 2.804688 -5.15625 2.925781 -5.085938 3.027344 -4.992188 C 3.132812 -4.898438 3.214844 -4.785156 3.273438 -4.652344 C 3.335938 -4.523438 3.367188 -4.378906 3.367188 -4.214844 C 3.367188 -4.011719 3.335938 -3.832031 3.269531 -3.675781 C 3.207031 -3.519531 3.113281 -3.375 2.988281 -3.242188 C 2.863281 -3.109375 2.707031 -2.976562 2.515625 -2.847656 C 2.328125 -2.714844 2.109375 -2.570312 1.859375 -2.417969 C 1.652344 -2.292969 1.457031 -2.164062 1.265625 -2.023438 C 1.078125 -1.886719 0.910156 -1.726562 0.757812 -1.542969 C 0.609375 -1.359375 0.484375 -1.144531 0.386719 -0.894531 C 0.289062 -0.648438 0.226562 -0.351562 0.199219 0 L 4.058594 0 L 4.058594 -0.625 L 1.023438 -0.625 C 1.058594 -0.808594 1.128906 -0.972656 1.238281 -1.113281 C 1.347656 -1.253906 1.476562 -1.386719 1.628906 -1.507812 C 1.78125 -1.628906 1.949219 -1.746094 2.132812 -1.855469 C 2.316406 -1.960938 2.5 -2.070312 2.683594 -2.183594 C 2.867188 -2.300781 3.042969 -2.421875 3.214844 -2.550781 C 3.386719 -2.679688 3.542969 -2.820312 3.675781 -2.980469 C 3.808594 -3.136719 3.914062 -3.316406 3.996094 -3.515625 C 4.078125 -3.714844 4.117188 -3.945312 4.117188 -4.207031 C 4.117188 -4.484375 4.066406 -4.730469 3.96875 -4.941406 C 3.871094 -5.152344 3.742188 -5.328125 3.574219 -5.46875 C 3.40625 -5.613281 3.210938 -5.71875 2.988281 -5.796875 C 2.761719 -5.871094 2.523438 -5.90625 2.265625 -5.90625 C 1.957031 -5.90625 1.675781 -5.855469 1.433594 -5.75 C 1.1875 -5.644531 0.984375 -5.5 0.820312 -5.3125 C 0.65625 -5.125 0.535156 -4.90625 0.457031 -4.648438 C 0.378906 -4.394531 0.351562 -4.117188 0.367188 -3.816406 Z "/>
</g>
<g id="glyph-0-2">
<path d="M 0.691406 -0.925781 L 0.691406 0 L 1.617188 0 L 1.617188 -0.925781 Z "/>
</g>
<g id="glyph-0-3">
<path d="M 1.101562 -2.910156 C 1.101562 -3.054688 1.101562 -3.210938 1.105469 -3.386719 C 1.105469 -3.5625 1.121094 -3.738281 1.144531 -3.914062 C 1.171875 -4.089844 1.207031 -4.257812 1.253906 -4.425781 C 1.300781 -4.59375 1.371094 -4.738281 1.460938 -4.863281 C 1.554688 -4.988281 1.667969 -5.089844 1.808594 -5.167969 C 1.945312 -5.246094 2.117188 -5.28125 2.316406 -5.28125 C 2.515625 -5.28125 2.6875 -5.246094 2.824219 -5.167969 C 2.964844 -5.089844 3.078125 -4.988281 3.171875 -4.863281 C 3.261719 -4.738281 3.332031 -4.589844 3.378906 -4.425781 C 3.425781 -4.257812 3.460938 -4.085938 3.488281 -3.914062 C 3.511719 -3.738281 3.527344 -3.5625 3.527344 -3.386719 C 3.53125 -3.210938 3.53125 -3.050781 3.53125 -2.910156 C 3.53125 -2.6875 3.527344 -2.4375 3.511719 -2.164062 C 3.5 -1.886719 3.453125 -1.628906 3.378906 -1.386719 C 3.304688 -1.144531 3.183594 -0.941406 3.015625 -0.773438 C 2.847656 -0.609375 2.617188 -0.523438 2.316406 -0.523438 C 2.015625 -0.523438 1.785156 -0.609375 1.617188 -0.773438 C 1.449219 -0.941406 1.328125 -1.144531 1.253906 -1.386719 C 1.179688 -1.628906 1.132812 -1.886719 1.121094 -2.164062 C 1.105469 -2.4375 1.101562 -2.6875 1.101562 -2.910156 Z M 0.351562 -2.898438 C 0.351562 -2.683594 0.355469 -2.457031 0.367188 -2.226562 C 0.378906 -1.992188 0.40625 -1.765625 0.449219 -1.542969 C 0.496094 -1.320312 0.558594 -1.109375 0.640625 -0.914062 C 0.726562 -0.714844 0.839844 -0.542969 0.984375 -0.390625 C 1.128906 -0.242188 1.308594 -0.125 1.527344 -0.0390625 C 1.746094 0.046875 2.011719 0.0898438 2.316406 0.0898438 C 2.628906 0.0898438 2.890625 0.046875 3.109375 -0.0390625 C 3.324219 -0.125 3.503906 -0.242188 3.648438 -0.390625 C 3.792969 -0.542969 3.90625 -0.714844 3.992188 -0.914062 C 4.074219 -1.109375 4.140625 -1.320312 4.183594 -1.542969 C 4.226562 -1.765625 4.253906 -1.992188 4.265625 -2.226562 C 4.277344 -2.457031 4.28125 -2.683594 4.28125 -2.898438 C 4.28125 -3.117188 4.277344 -3.339844 4.265625 -3.574219 C 4.253906 -3.808594 4.226562 -4.035156 4.183594 -4.257812 C 4.140625 -4.480469 4.074219 -4.691406 3.992188 -4.890625 C 3.910156 -5.089844 3.792969 -5.265625 3.648438 -5.417969 C 3.503906 -5.566406 3.324219 -5.6875 3.105469 -5.773438 C 2.886719 -5.863281 2.621094 -5.90625 2.316406 -5.90625 C 2.011719 -5.90625 1.75 -5.863281 1.527344 -5.773438 C 1.308594 -5.683594 1.128906 -5.566406 0.984375 -5.417969 C 0.839844 -5.265625 0.726562 -5.089844 0.640625 -4.890625 C 0.558594 -4.691406 0.496094 -4.480469 0.449219 -4.257812 C 0.40625 -4.035156 0.378906 -3.808594 0.367188 -3.574219 C 0.355469 -3.339844 0.351562 -3.117188 0.351562 -2.898438 Z "/>
</g>
</g>
<image id="source-94" x="0" y="0" width="0" height="0"/>
<mask id="mask-0">
<use xlink:href="#source-94"/>
</mask>
</defs>
<g fill="rgb(87.843137%, 33.72549%, 22.745098%)" fill-opacity="1">
<use xlink:href="#glyph-0-0" x="30" y="27.932617"/>
<use xlink:href="#glyph-0-0" x="32" y="27.932617"/>
<use xlink:href="#glyph-0-0" x="34" y="27.932617"/>
<use xlink:href="#glyph-0-1" x="36" y="27.932617"/>
<use xlink:href="#glyph-0-2" x="41" y="27.932617"/>
<use xlink:href="#glyph-0-1" x="43" y="27.932617"/>
<use xlink:href="#glyph-0-3" x="48" y="27.932617"/>
</g>
</svg>
